[Header]
FileType HTR
DataType HTRS
FileVersion 1
NumSegments 22
NumFrames 5
DataFrameRate 24
EulerRotationOrder ZYX
CalibrationUnits mm
RotationUnits Degrees
GlobalAxisofGravity Y
BoneLengthAxis Y
ScaleFactor 1.0
[SegmentNames&Hierarchy]
reference	GLOBAL
Hips	reference
Spine	Hips
Spine1	Spine
Neck	Spine1
Head	Neck
LeftShoulder	Spine1
LeftArm	LeftShoulder
LeftForeArm	LeftArm
LeftHand	LeftForeArm
RightShoulder	Spine1
RightArm	RightShoulder
RightForeArm	RightArm
RightHand	RightForeArm
LeftUpLeg	Hips
LeftLeg	LeftUpLeg
LeftFoot	LeftLeg
LeftToeBase	LeftFoot
RightUpLeg	Hips
RightLeg	RightUpLeg
RightFoot	RightLeg
RightToeBase	RightFoot
[BasePosition]
reference	0	0	0	0	0	0	1
Hips	0	0	0	0	0	0	1
Spine	0	0	0	0	-0	90	1
Spine1	0	0	0	0	0	0	1
Neck	0	0	0	-7.352430803	-7.352430803	90	1
Head	0	0	0	0	-0	90	1
LeftShoulder	0	0	0	0	0	0	1
LeftArm	0	0	0	0	0	0	1
LeftForeArm	0	0	0	0	0	0	1
LeftHand	0	0	0	0	0	0	1
RightShoulder	0	0	0	0	-0	180	1
RightArm	0	0	0	0	-0	180	1
RightForeArm	0	0	0	0	-0	180	1
RightHand	0	0	0	0	-0	180	1
LeftUpLeg	0	0	0	0	-0	-90	1
LeftLeg	0	0	0	0	-0	-90	1
LeftFoot	0	0	0	66.57150701	-66.57150701	-90	1
LeftToeBase	0	0	0	0	-90	0	1
RightUpLeg	0	0	0	0	-0	-90	1
RightLeg	0	0	0	0	-0	-90	1
RightFoot	0	0	0	66.57150701	-66.57150701	-90	1
RightToeBase	0	0	0	0	-90	0	1
[reference]
1	0	0	0	0	-0	0	1.0
2	0	0	0	0	-0	0	1.0
3	0	0	0	0	-0	0	1.0
4	0	0	0	0	-0	0	1.0
5	0	0	0	0	-0	0	1.0
[Hips]
1	0.4518299997	8.778429985	0.1176699996	-0.9842987061	-104.2867355	3.886016846	1.0
2	0.4518299997	8.778429985	0.1176699996	-0.9342780113	-104.2552643	3.860139132	1.0
3	0.4518299997	8.778429985	0.1176699996	-0.8990636468	-104.2075882	3.846081734	1.0
4	0.4518299997	8.778429985	0.1176699996	-0.8880844116	-104.1303864	3.881861687	1.0
5	0.4518299997	8.778429985	0.1176699996	-0.8718826771	-104.0497971	3.916663647	1.0
[Spine]
1	0	0.7478299737	0	-14.93304825	0.06917899847	-90.02542114	1.0
2	0	0.7478299737	0	-15.06394005	0.03392254934	-90.02958679	1.0
3	0	0.7478299737	0	-15.11175537	0.01506812125	-90.05084229	1.0
4	0	0.7478299737	0	-15.14553833	0.00420241151	-90.05863953	1.0
5	0	0.7478299737	0	-15.19262314	0.006030069664	-90.06560516	1.0
[Spine1]
1	0	2.049309969	0	13.28696823	0.03756167367	-0.127116099	1.0
2	0	2.049309969	0	13.29800701	0.03756167367	-0.1474340409	1.0
3	0	2.049309969	0	13.3052721	0.03756167367	-0.15983437	1.0
4	0	2.049309969	0	13.34633636	0.03756167367	-0.1621069461	1.0
5	0	2.049309969	0	13.3825655	0.03756167367	-0.1622703522	1.0
[Neck]
1	0	2.231709957	0	-9.915692329	-2.772945881	-87.83264923	1.0
2	0	2.231709957	0	-8.580606461	1.471435785	-88.41513062	1.0
3	0	2.231709957	0	-7.705397129	1.239908457	-88.27201843	1.0
4	0	2.231709957	0	-7.589785576	1.250108719	-88.25977325	1.0
5	0	2.231709957	0	-7.597405434	1.217532516	-88.25624084	1.0
[Head]
1	0	1.413589954	0.1823999882	2.508723497	4.32438612	-91.22853088	1.0
2	0	1.413589954	0.1823999882	0.7601112723	-0.1836577803	-90.33355713	1.0
3	0	1.413589954	0.1823999882	-0.5305016041	0.05252391845	-90.33060455	1.0
4	0	1.413589954	0.1823999882	-0.7317360044	0.02614678442	-90.14617157	1.0
5	0	1.413589954	0.1823999882	-0.8043017387	0.01370274741	-90.06363678	1.0
[LeftShoulder]
1	0.3649300039	1.825889945	-0.04271000251	-12.82466316	-6.220766544	1.404587507	1.0
2	0.3649300039	1.825889945	-0.04271000251	-12.39143753	-6.64166069	1.423925757	1.0
3	0.3649300039	1.825889945	-0.04271000251	-12.20843983	-6.775060177	1.432273626	1.0
4	0.3649300039	1.825889945	-0.04271000251	-12.28931427	-6.778232098	1.478379607	1.0
5	0.3649300039	1.825889945	-0.04271000251	-12.33019257	-6.767326832	1.500551343	1.0
[LeftArm]
1	1.24003005	0	0	40.5430069	8.787378311	-79.56690216	1.0
2	1.24003005	0	0	40.06035233	8.601730347	-79.6288681	1.0
3	1.24003005	0	0	39.86858368	8.538265228	-79.73104858	1.0
4	1.24003005	0	0	39.82757187	8.642571449	-79.79785156	1.0
5	1.24003005	0	0	39.68402481	8.698307037	-79.74195862	1.0
[LeftForeArm]
1	2.847419977	0	0	-10.44676304	-12.02678394	-4.184297562	1.0
2	2.847419977	0	0	-10.33770943	-12.00141811	-4.243884563	1.0
3	2.847419977	0	0	-10.44796848	-11.93680954	-4.163935184	1.0
4	2.847419977	0	0	-10.50988197	-11.87121391	-4.182349205	1.0
5	2.847419977	0	0	-10.7347765	-11.94977379	-4.286746502	1.0
[LeftHand]
1	2.258270025	0	0	-10.7681427	-4.524738789	-3.023165703	1.0
2	2.258270025	0	0	-10.68078518	-4.394694805	-2.694949865	1.0
3	2.258270025	0	0	-10.76680565	-4.474009514	-2.990127802	1.0
4	2.258270025	0	0	-10.81851959	-4.701851845	-3.082064152	1.0
5	2.258270025	0	0	-11.01926136	-4.897103786	-3.84796834	1.0
[RightShoulder]
1	-0.3646599948	1.825889945	-0.04271000251	-8.450287819	6.173244953	-179.9569092	1.0
2	-0.3646599948	1.825889945	-0.04271000251	-7.986805916	6.579661369	-179.8147583	1.0
3	-0.3646599948	1.825889945	-0.04271000251	-7.759077072	6.700139999	-179.7228699	1.0
4	-0.3646599948	1.825889945	-0.04271000251	-7.749681473	6.712582588	-179.7009277	1.0
5	-0.3646599948	1.825889945	-0.04271000251	-7.757237911	6.693257332	-179.6973877	1.0
[RightArm]
1	-1.24003005	0	0	49.72536087	-4.736894131	-98.81998444	1.0
2	-1.24003005	0	0	49.26242447	-4.481428146	-98.9875412	1.0
3	-1.24003005	0	0	49.30789185	-4.336308479	-99.04403687	1.0
4	-1.24003005	0	0	49.35617828	-4.340029716	-99.04669189	1.0
5	-1.24003005	0	0	49.49874878	-4.33503294	-98.99362946	1.0
[RightForeArm]
1	-2.847419977	0	0	-0.7371536493	12.54775143	177.5042877	1.0
2	-2.847419977	0	0	-0.7778866291	12.61082649	177.5110168	1.0
3	-2.847419977	0	0	-0.8913106322	12.58511734	177.4337463	1.0
4	-2.847419977	0	0	-0.9417231679	12.56855774	177.3951416	1.0
5	-2.847419977	0	0	-1.011884689	12.49231148	177.307785	1.0
[RightHand]
1	-2.258270025	0	0	-0.7074842453	6.432543755	175.6498718	1.0
2	-2.258270025	0	0	-0.7461680174	6.416445255	175.6638031	1.0
3	-2.258270025	0	0	-0.8343938589	6.370687485	175.9396667	1.0
4	-2.258270025	0	0	-0.8812731504	6.393176556	175.9485168	1.0
5	-2.258270025	0	0	-0.9404115677	6.387465477	176.0037079	1.0
[LeftUpLeg]
1	0.9119900465	0	0	3.85227108	-0.5950865149	90.32249451	1.0
2	0.9119900465	0	0	3.826132774	-0.5799483061	90.31166077	1.0
3	0.9119900465	0	0	3.801974297	-0.5920753479	90.31252289	1.0
4	0.9119900465	0	0	3.786568642	-0.6639817953	90.3126297	1.0
5	0.9119900465	0	0	3.757104158	-0.7482684255	90.3120575	1.0
[LeftLeg]
1	0	-4.371409893	0	0.6806644201	-2.577562094	89.06813049	1.0
2	0	-4.371409893	0	0.67971766	-2.591788769	89.05019379	1.0
3	0	-4.371409893	0	0.6639701724	-2.651156187	89.04095459	1.0
4	0	-4.371409893	0	0.6162691116	-2.642997503	89.04096222	1.0
5	0	-4.371409893	0	0.5717354417	-2.609762192	89.03728485	1.0
[LeftFoot]
1	0	-3.918009996	0	-80.22888947	113.3341522	-40.26576233	1.0
2	0	-3.918009996	0	-80.32350159	113.3432159	-40.34520721	1.0
3	0	-3.918009996	0	-80.27030945	113.3296814	-40.29097366	1.0
4	0	-3.918009996	0	-80.31975555	113.339798	-40.35318756	1.0
5	0	-3.918009996	0	-80.37593079	113.346817	-40.4143219	1.0
[LeftToeBase]
1	0	-0.5927900076	1.367989898	0	0	0	1.0
2	0	-0.5927900076	1.367989898	0	0	0	1.0
3	0	-0.5927900076	1.367989898	0	0	0	1.0
4	0	-0.5927900076	1.367989898	0	0	0	1.0
5	0	-0.5927900076	1.367989898	0	0	0	1.0
[RightUpLeg]
1	-0.9119900465	0	0	3.523376226	8.93706131	93.42758942	1.0
2	-0.9119900465	0	0	3.502901077	9.069765091	93.41176605	1.0
3	-0.9119900465	0	0	3.471982718	9.151884079	93.39043427	1.0
4	-0.9119900465	0	0	3.466602325	9.133181572	93.38795471	1.0
5	-0.9119900465	0	0	3.454573154	9.063513756	93.38622284	1.0
[RightLeg]
1	0	-4.371409893	0	1.021398664	3.549555302	89.82474518	1.0
2	0	-4.371409893	0	1.027646184	3.464453936	89.82879639	1.0
3	0	-4.371409893	0	1.039129019	3.435111046	89.84881592	1.0
4	0	-4.371409893	0	0.9980463982	3.408656836	89.84836578	1.0
5	0	-4.371409893	0	0.9460556507	3.391474247	89.84075928	1.0
[RightFoot]
1	0	-3.918009996	0	34.99471283	62.17016983	66.85340881	1.0
2	0	-3.918009996	0	34.84975052	62.12772369	66.73307037	1.0
3	0	-3.918009996	0	34.68889999	62.06899261	66.57303619	1.0
4	0	-3.918009996	0	34.66080475	62.06067657	66.53826141	1.0
5	0	-3.918009996	0	34.70492172	62.04636383	66.57517242	1.0
[RightToeBase]
1	0	-0.5927900076	1.367989898	0	0	0	1.0
2	0	-0.5927900076	1.367989898	0	0	0	1.0
3	0	-0.5927900076	1.367989898	0	0	0	1.0
4	0	-0.5927900076	1.367989898	0	0	0	1.0
5	0	-0.5927900076	1.367989898	0	0	0	1.0
[EndOfFile]
